
<svg width="800" height="600" xmlns="http://www.w3.org/2000/svg">
  <defs>
    <linearGradient id="grad1" x1="0%" y1="0%" x2="0%" y2="100%">
      <stop offset="0%" style="stop-color:#6c8ebf;stop-opacity:1" />
      <stop offset="100%" style="stop-color:#4572c4;stop-opacity:1" />
    </linearGradient>
  </defs>

  <!-- Background -->
  <rect width="800" height="600" fill="#ffffff" />
  
  <!-- Title -->
  <text x="400" y="40" font-family="Arial" font-size="24" text-anchor="middle" font-weight="bold">
    Component Hierarchy
  </text>

  <!-- Root Component: App -->
  <rect x="350" y="70" width="100" height="40" rx="5" ry="5" fill="url(#grad1)" stroke="#666666" stroke-width="2" />
  <text x="400" y="95" font-family="Arial" font-size="14" text-anchor="middle" fill="white">App</text>
  
  <!-- First level components -->
  <rect x="150" y="150" width="140" height="40" rx="5" ry="5" fill="url(#grad1)" stroke="#666666" stroke-width="1" />
  <text x="220" y="175" font-family="Arial" font-size="14" text-anchor="middle" fill="white">AccountIssue</text>

  <rect x="350" y="150" width="100" height="40" rx="5" ry="5" fill="url(#grad1)" stroke="#666666" stroke-width="1" />
  <text x="400" y="175" font-family="Arial" font-size="14" text-anchor="middle" fill="white">Contents</text>
  
  <rect x="510" y="150" width="140" height="40" rx="5" ry="5" fill="url(#grad1)" stroke="#666666" stroke-width="1" />
  <text x="580" y="175" font-family="Arial" font-size="14" text-anchor="middle" fill="white">Error Components</text>
  
  <!-- Connect App to first level -->
  <line x1="400" y1="110" x2="220" y2="150" stroke="#666666" stroke-width="1" />
  <line x1="400" y1="110" x2="400" y2="150" stroke="#666666" stroke-width="1" />
  <line x1="400" y1="110" x2="580" y2="150" stroke="#666666" stroke-width="1" />
  
  <!-- Second level components for AccountIssue -->
  <rect x="100" y="230" width="80" height="40" rx="5" ry="5" fill="url(#grad1)" stroke="#666666" stroke-width="1" />
  <text x="140" y="255" font-family="Arial" font-size="14" text-anchor="middle" fill="white">Login</text>
  
  <rect x="190" y="230" width="80" height="40" rx="5" ry="5" fill="url(#grad1)" stroke="#666666" stroke-width="1" />
  <text x="230" y="255" font-family="Arial" font-size="14" text-anchor="middle" fill="white">SignUp</text>
  
  <rect x="280" y="230" width="80" height="40" rx="5" ry="5" fill="url(#grad1)" stroke="#666666" stroke-width="1" />
  <text x="320" y="255" font-family="Arial" font-size="14" text-anchor="middle" fill="white">Forget</text>
  
  <!-- Connect AccountIssue to second level -->
  <line x1="220" y1="190" x2="140" y2="230" stroke="#666666" stroke-width="1" />
  <line x1="220" y1="190" x2="230" y2="230" stroke="#666666" stroke-width="1" />
  <line x1="220" y1="190" x2="320" y2="230" stroke="#666666" stroke-width="1" />
  
  <!-- Second level components for Contents -->
  <rect x="370" y="230" width="80" height="40" rx="5" ry="5" fill="url(#grad1)" stroke="#666666" stroke-width="1" />
  <text x="410" y="255" font-family="Arial" font-size="14" text-anchor="middle" fill="white">Header</text>
  
  <rect x="460" y="230" width="80" height="40" rx="5" ry="5" fill="url(#grad1)" stroke="#666666" stroke-width="1" />
  <text x="500" y="255" font-family="Arial" font-size="14" text-anchor="middle" fill="white">Videos</text>
  
  <!-- Connect Contents to second level -->
  <line x1="400" y1="190" x2="410" y2="230" stroke="#666666" stroke-width="1" />
  <line x1="400" y1="190" x2="500" y2="230" stroke="#666666" stroke-width="1" />
  
  <!-- Second level components for Error Components -->
  <rect x="550" y="230" width="120" height="40" rx="5" ry="5" fill="url(#grad1)" stroke="#666666" stroke-width="1" />
  <text x="610" y="255" font-family="Arial" font-size="14" text-anchor="middle" fill="white">NetworkError</text>
  
  <!-- Connect Error Components to second level -->
  <line x1="580" y1="190" x2="610" y2="230" stroke="#666666" stroke-width="1" />
  
  <!-- Third level components for Header -->
  <rect x="330" y="310" width="160" height="40" rx="5" ry="5" fill="url(#grad1)" stroke="#666666" stroke-width="1" />
  <text x="410" y="335" font-family="Arial" font-size="14" text-anchor="middle" fill="white">SearchAndSuggestion</text>
  
  <!-- Connect Header to third level -->
  <line x1="410" y1="270" x2="410" y2="310" stroke="#666666" stroke-width="1" />
  
  <!-- Third level components for Videos -->
  <rect x="500" y="310" width="80" height="40" rx="5" ry="5" fill="url(#grad1)" stroke="#666666" stroke-width="1" />
  <text x="540" y="335" font-family="Arial" font-size="14" text-anchor="middle" fill="white">VideoList</text>
  
  <!-- Connect Videos to third level -->
  <line x1="500" y1="270" x2="540" y2="310" stroke="#666666" stroke-width="1" />
  
  <!-- Fourth level components for SearchAndSuggestion -->
  <rect x="300" y="390" width="100" height="40" rx="5" ry="5" fill="url(#grad1)" stroke="#666666" stroke-width="1" />
  <text x="350" y="415" font-family="Arial" font-size="12" text-anchor="middle" fill="white">SuggestionItem</text>
  
  <rect x="410" y="390" width="140" height="40" rx="5" ry="5" fill="url(#grad1)" stroke="#666666" stroke-width="1" />
  <text x="480" y="415" font-family="Arial" font-size="12" text-anchor="middle" fill="white">SuggestionCategories</text>
  
  <!-- Connect SearchAndSuggestion to fourth level -->
  <line x1="410" y1="350" x2="350" y2="390" stroke="#666666" stroke-width="1" />
  <line x1="410" y1="350" x2="480" y2="390" stroke="#666666" stroke-width="1" />
  
  <!-- Fourth level components for VideoList -->
  <rect x="560" y="390" width="120" height="40" rx="5" ry="5" fill="url(#grad1)" stroke="#666666" stroke-width="1" />
  <text x="620" y="415" font-family="Arial" font-size="12" text-anchor="middle" fill="white">VideoCardRow</text>
  
  <!-- Connect VideoList to fourth level -->
  <line x1="540" y1="350" x2="620" y2="390" stroke="#666666" stroke-width="1" />
  
  <!-- Fifth level components for VideoCardRow -->
  <rect x="580" y="470" width="80" height="40" rx="5" ry="5" fill="url(#grad1)" stroke="#666666" stroke-width="1" />
  <text x="620" y="495" font-family="Arial" font-size="12" text-anchor="middle" fill="white">VideoCard</text>
  
  <!-- Connect VideoCardRow to fifth level -->
  <line x1="620" y1="430" x2="620" y2="470" stroke="#666666" stroke-width="1" />
  
  <!-- Legend -->
  <rect x="50" y="510" width="200" height="70" rx="5" ry="5" fill="#f5f5f5" stroke="#666666" stroke-width="1" />
  <text x="150" y="530" font-family="Arial" font-size="14" text-anchor="middle" font-weight="bold">Component Legend</text>
  <rect x="70" y="540" width="20" height="15" fill="url(#grad1)" stroke="#666666" stroke-width="1" />
  <text x="100" y="552" font-family="Arial" font-size="12" text-anchor="start" dominant-baseline="middle">React Component</text>
  <line x1="70" y1="570" x2="90" y2="570" stroke="#666666" stroke-width="1" />
  <text x="100" y="570" font-family="Arial" font-size="12" text-anchor="start" dominant-baseline="middle">Component Relationship</text>
</svg>
