
<svg width="800" height="600" xmlns="http://www.w3.org/2000/svg">
  <defs>
    <linearGradient id="grad1" x1="0%" y1="0%" x2="0%" y2="100%">
      <stop offset="0%" style="stop-color:#6c8ebf;stop-opacity:1" />
      <stop offset="100%" style="stop-color:#4572c4;stop-opacity:1" />
    </linearGradient>
    <linearGradient id="grad2" x1="0%" y1="0%" x2="0%" y2="100%">
      <stop offset="0%" style="stop-color:#f8cecc;stop-opacity:1" />
      <stop offset="100%" style="stop-color:#ea6b66;stop-opacity:1" />
    </linearGradient>
    <linearGradient id="grad3" x1="0%" y1="0%" x2="0%" y2="100%">
      <stop offset="0%" style="stop-color:#d5e8d4;stop-opacity:1" />
      <stop offset="100%" style="stop-color:#97d077;stop-opacity:1" />
    </linearGradient>
    <marker id="arrow" markerWidth="10" markerHeight="10" refX="9" refY="3" orient="auto" markerUnits="strokeWidth">
      <path d="M0,0 L0,6 L9,3 z" fill="#666" />
    </marker>
  </defs>

  <!-- Background -->
  <rect width="800" height="600" fill="#ffffff" />
  
  <!-- Title -->
  <text x="400" y="40" font-family="Arial" font-size="24" text-anchor="middle" font-weight="bold">
    Application Data Flow
  </text>

  <!-- User Interaction -->
  <rect x="300" y="80" width="200" height="60" rx="5" ry="5" fill="#f5f5f5" stroke="#666666" stroke-width="2" />
  <text x="400" y="120" font-family="Arial" font-size="16" text-anchor="middle">User Interaction</text>
  
  <!-- Components -->
  <rect x="100" y="200" width="200" height="60" rx="5" ry="5" fill="url(#grad1)" stroke="#666666" stroke-width="1" />
  <text x="200" y="240" font-family="Arial" font-size="16" text-anchor="middle" fill="white">React Components</text>
  
  <!-- Actions -->
  <rect x="500" y="200" width="200" height="60" rx="5" ry="5" fill="url(#grad2)" stroke="#666666" stroke-width="1" />
  <text x="600" y="240" font-family="Arial" font-size="16" text-anchor="middle" fill="white">Actions</text>
  
  <!-- Reducers -->
  <rect x="500" y="320" width="200" height="60" rx="5" ry="5" fill="url(#grad3)" stroke="#666666" stroke-width="1" />
  <text x="600" y="360" font-family="Arial" font-size="16" text-anchor="middle" fill="white">Reducers</text>
  
  <!-- Redux Store -->
  <rect x="300" y="320" width="160" height="60" rx="5" ry="5" fill="#d4e1f5" stroke="#666666" stroke-width="1" />
  <text x="380" y="360" font-family="Arial" font-size="16" text-anchor="middle">Redux Store</text>
  
  <!-- API Client -->
  <rect x="100" y="440" width="200" height="60" rx="5" ry="5" fill="#ffcc99" stroke="#666666" stroke-width="1" />
  <text x="200" y="480" font-family="Arial" font-size="16" text-anchor="middle">API Client</text>
  
  <!-- Backend Services -->
  <rect x="500" y="440" width="200" height="60" rx="5" ry="5" fill="#ffe6cc" stroke="#666666" stroke-width="1" />
  <text x="600" y="480" font-family="Arial" font-size="16" text-anchor="middle">Backend Services</text>
  
  <!-- Connect the boxes with arrows -->
  <!-- User -> Components -->
  <line x1="400" y1="140" x2="200" y2="200" stroke="#666666" stroke-width="1.5" marker-end="url(#arrow)" />
  <text x="270" y="180" font-family="Arial" font-size="12" text-anchor="middle">Events</text>
  
  <!-- Components -> Actions -->
  <line x1="300" y1="230" x2="500" y2="230" stroke="#666666" stroke-width="1.5" marker-end="url(#arrow)" />
  <text x="400" y="220" font-family="Arial" font-size="12" text-anchor="middle">Dispatch</text>
  
  <!-- Actions -> Reducers -->
  <line x1="600" y1="260" x2="600" y2="320" stroke="#666666" stroke-width="1.5" marker-end="url(#arrow)" />
  <text x="620" y="290" font-family="Arial" font-size="12" text-anchor="middle">Process</text>
  
  <!-- Reducers -> Store -->
  <line x1="500" y1="350" x2="460" y2="350" stroke="#666666" stroke-width="1.5" marker-end="url(#arrow)" />
  <text x="480" y="370" font-family="Arial" font-size="12" text-anchor="middle">Update</text>
  
  <!-- Store -> Components -->
  <line x1="300" y1="350" x2="200" y2="260" stroke="#666666" stroke-width="1.5" marker-end="url(#arrow)" />
  <text x="220" y="320" font-family="Arial" font-size="12" text-anchor="middle">Subscribe</text>
  
  <!-- Components -> API Client -->
  <line x1="200" y1="260" x2="200" y2="440" stroke="#666666" stroke-width="1.5" marker-end="url(#arrow)" />
  <text x="220" y="350" font-family="Arial" font-size="12" text-anchor="middle">Call</text>
  
  <!-- API Client -> Backend -->
  <line x1="300" y1="470" x2="500" y2="470" stroke="#666666" stroke-width="1.5" marker-end="url(#arrow)" />
  <text x="400" y="490" font-family="Arial" font-size="12" text-anchor="middle">HTTP Request</text>
  
  <!-- Backend -> API Client -->
  <line x1="500" y1="450" x2="300" y2="450" stroke="#666666" stroke-width="1.5" marker-end="url(#arrow)" />
  <text x="400" y="430" font-family="Arial" font-size="12" text-anchor="middle">HTTP Response</text>
  
  <!-- API Client -> Actions -->
  <line x1="250" y1="440" x2="550" y2="260" stroke="#666666" stroke-width="1.5" marker-end="url(#arrow)" stroke-dasharray="5,5" />
  <text x="400" y="350" font-family="Arial" font-size="12" text-anchor="middle">Dispatch result actions</text>
</svg>
