<svg width="600" height="400" xmlns="http://www.w3.org/2000/svg">
  <!-- App Frame -->
  <rect width="600" height="400" rx="12" ry="12" fill="#FFFFFF" stroke="#E0E0E0" stroke-width="2" />
  
  <!-- App Header -->
  <rect x="0" y="0" width="600" height="60" rx="12" ry="12" fill="#1976D2" />
  <circle cx="30" cy="30" r="15" fill="#FFFFFF" />
  <rect x="60" y="20" width="120" height="20" rx="10" ry="10" fill="rgba(255, 255, 255, 0.6)" />
  <rect x="440" y="20" width="40" height="20" rx="10" ry="10" fill="rgba(255, 255, 255, 0.6)" />
  <rect x="500" y="20" width="40" height="20" rx="10" ry="10" fill="rgba(255, 255, 255, 0.6)" />
  
  <!-- Left Sidebar -->
  <rect x="0" y="60" width="180" height="340" fill="#F5F5F5" />
  <rect x="20" y="80" width="140" height="30" rx="5" ry="5" fill="#E0E0E0" />
  <rect x="20" y="120" width="140" height="30" rx="5" ry="5" fill="#E0E0E0" />
  <rect x="20" y="160" width="140" height="30" rx="5" ry="5" fill="#E0E0E0" />
  <rect x="20" y="200" width="140" height="30" rx="5" ry="5" fill="#E0E0E0" />
  
  <!-- Main Content Area -->
  <rect x="200" y="80" width="380" height="100" rx="5" ry="5" fill="#E3F2FD" />
  <rect x="220" y="100" width="340" height="20" rx="5" ry="5" fill="#BBDEFB" />
  <rect x="220" y="130" width="280" height="10" rx="5" ry="5" fill="#BBDEFB" />
  <rect x="220" y="150" width="200" height="10" rx="5" ry="5" fill="#BBDEFB" />
  
  <rect x="200" y="200" width="380" height="100" rx="5" ry="5" fill="#E3F2FD" />
  <rect x="220" y="220" width="340" height="20" rx="5" ry="5" fill="#BBDEFB" />
  <rect x="220" y="250" width="280" height="10" rx="5" ry="5" fill="#BBDEFB" />
  <rect x="220" y="270" width="200" height="10" rx="5" ry="5" fill="#BBDEFB" />
  
  <rect x="200" y="320" width="180" height="80" rx="5" ry="5" fill="#E3F2FD" />
  <rect x="400" y="320" width="180" height="80" rx="5" ry="5" fill="#E3F2FD" />
</svg> 