<svg width="400" height="600" xmlns="http://www.w3.org/2000/svg">
  <!-- Profile Interface Frame -->
  <rect width="400" height="600" rx="12" ry="12" fill="#FFFFFF" stroke="#E0E0E0" stroke-width="2" />
  
  <!-- Profile Header -->
  <rect x="0" y="0" width="400" height="60" rx="12" ry="12" fill="#1976D2" />
  <rect x="20" y="20" width="120" height="20" rx="10" ry="10" fill="rgba(255, 255, 255, 0.8)" />
  <circle cx="350" cy="30" r="15" fill="rgba(255, 255, 255, 0.4)" />
  <circle cx="390" cy="30" r="15" fill="rgba(255, 255, 255, 0.4)" />
  
  <!-- Profile Cover Photo -->
  <rect x="0" y="60" width="400" height="120" fill="#90CAF9" />
  
  <!-- Profile Avatar -->
  <circle cx="80" cy="180" r="50" fill="#F5F5F5" stroke="#FFFFFF" stroke-width="4" />
  
  <!-- Profile Info -->
  <rect x="140" y="140" width="200" height="20" rx="5" ry="5" fill="rgba(255, 255, 255, 0.8)" />
  <rect x="140" y="170" width="120" height="15" rx="5" ry="5" fill="rgba(255, 255, 255, 0.6)" />
  <rect x="140" y="195" width="240" height="10" rx="5" ry="5" fill="rgba(0, 0, 0, 0.1)" />
  <rect x="140" y="210" width="200" height="10" rx="5" ry="5" fill="rgba(0, 0, 0, 0.1)" />
  
  <!-- Profile Stats -->
  <rect x="20" y="250" width="360" height="60" rx="5" ry="5" fill="#F5F5F5" />
  
  <rect x="40" y="265" width="80" height="30" rx="5" ry="5" fill="#FFFFFF" />
  <rect x="50" y="270" width="60" height="10" rx="5" ry="5" fill="#BDBDBD" />
  <rect x="50" y="285" width="40" height="10" rx="5" ry="5" fill="#E0E0E0" />
  
  <rect x="160" y="265" width="80" height="30" rx="5" ry="5" fill="#FFFFFF" />
  <rect x="170" y="270" width="60" height="10" rx="5" ry="5" fill="#BDBDBD" />
  <rect x="170" y="285" width="40" height="10" rx="5" ry="5" fill="#E0E0E0" />
  
  <rect x="280" y="265" width="80" height="30" rx="5" ry="5" fill="#FFFFFF" />
  <rect x="290" y="270" width="60" height="10" rx="5" ry="5" fill="#BDBDBD" />
  <rect x="290" y="285" width="40" height="10" rx="5" ry="5" fill="#E0E0E0" />
  
  <!-- Profile Tabs -->
  <rect x="20" y="330" width="360" height="40" rx="5" ry="5" fill="#F5F5F5" />
  
  <rect x="40" y="340" width="80" height="20" rx="10" ry="10" fill="#1976D2" />
  <rect x="140" y="340" width="80" height="20" rx="10" ry="10" fill="#FFFFFF" stroke="#E0E0E0" stroke-width="1" />
  <rect x="240" y="340" width="80" height="20" rx="10" ry="10" fill="#FFFFFF" stroke="#E0E0E0" stroke-width="1" />
  
  <!-- Content Area -->
  <rect x="20" y="390" width="175" height="100" rx="5" ry="5" fill="#F5F5F5" />
  <rect x="205" y="390" width="175" height="100" rx="5" ry="5" fill="#F5F5F5" />
  
  <rect x="20" y="500" width="175" height="80" rx="5" ry="5" fill="#F5F5F5" />
  <rect x="205" y="500" width="175" height="80" rx="5" ry="5" fill="#F5F5F5" />
</svg> 