<svg width="400" height="600" xmlns="http://www.w3.org/2000/svg">
  <!-- Feed Interface Frame -->
  <rect width="400" height="600" rx="12" ry="12" fill="#FFFFFF" stroke="#E0E0E0" stroke-width="2" />
  
  <!-- Feed Header -->
  <rect x="0" y="0" width="400" height="60" rx="12" ry="12" fill="#1976D2" />
  <rect x="20" y="20" width="120" height="20" rx="10" ry="10" fill="rgba(255, 255, 255, 0.8)" />
  <circle cx="350" cy="30" r="15" fill="rgba(255, 255, 255, 0.4)" />
  <circle cx="390" cy="30" r="15" fill="rgba(255, 255, 255, 0.4)" />
  
  <!-- Stories Bar -->
  <rect x="10" y="70" width="380" height="80" fill="#FFFFFF" />
  
  <circle cx="50" cy="110" r="30" fill="#E3F2FD" stroke="#1976D2" stroke-width="2" />
  <circle cx="120" cy="110" r="30" fill="#E3F2FD" stroke="#1976D2" stroke-width="2" />
  <circle cx="190" cy="110" r="30" fill="#E3F2FD" stroke="#1976D2" stroke-width="2" />
  <circle cx="260" cy="110" r="30" fill="#E3F2FD" stroke="#1976D2" stroke-width="2" />
  <circle cx="330" cy="110" r="30" fill="#E3F2FD" stroke="#1976D2" stroke-width="2" />

  <!-- Post 1 -->
  <rect x="10" y="160" width="380" height="200" rx="5" ry="5" fill="#FFFFFF" stroke="#E0E0E0" stroke-width="1" />
  
  <!-- Post Header -->
  <circle cx="40" cy="185" r="20" fill="#F5F5F5" />
  <rect x="70" y="175" width="100" height="10" rx="5" ry="5" fill="#BDBDBD" />
  <rect x="70" y="195" width="60" height="8" rx="4" ry="4" fill="#E0E0E0" />
  <circle cx="360" cy="185" r="10" fill="#F5F5F5" />
  
  <!-- Post Content -->
  <rect x="20" y="220" width="360" height="100" rx="5" ry="5" fill="#F5F5F5" />
  
  <!-- Post Actions -->
  <rect x="20" y="330" width="80" height="20" rx="10" ry="10" fill="#F5F5F5" />
  <rect x="110" y="330" width="80" height="20" rx="10" ry="10" fill="#F5F5F5" />
  <rect x="200" y="330" width="80" height="20" rx="10" ry="10" fill="#F5F5F5" />
  
  <!-- Post 2 -->
  <rect x="10" y="370" width="380" height="220" rx="5" ry="5" fill="#FFFFFF" stroke="#E0E0E0" stroke-width="1" />
  
  <!-- Post Header -->
  <circle cx="40" cy="395" r="20" fill="#F5F5F5" />
  <rect x="70" y="385" width="100" height="10" rx="5" ry="5" fill="#BDBDBD" />
  <rect x="70" y="405" width="60" height="8" rx="4" ry="4" fill="#E0E0E0" />
  <circle cx="360" cy="395" r="10" fill="#F5F5F5" />
  
  <!-- Post Content -->
  <rect x="20" y="430" width="360" height="120" rx="5" ry="5" fill="#F5F5F5" />
  
  <!-- Post Actions -->
  <rect x="20" y="560" width="80" height="20" rx="10" ry="10" fill="#F5F5F5" />
  <rect x="110" y="560" width="80" height="20" rx="10" ry="10" fill="#F5F5F5" />
  <rect x="200" y="560" width="80" height="20" rx="10" ry="10" fill="#F5F5F5" />
</svg> 